<svg height="5246" width="720" xmlns="http://www.w3.org/2000/svg">
<rect height="5246" fill="#555" width="720"></rect>
<text fill="#7f7" font-family="Courier New" font-size="12" xml:space="preserve">
<tspan x="10" y="26">52 megabytes installed</tspan>
<tspan x="10" y="42"></tspan>
<tspan x="10" y="58">node_modules</tspan>
<tspan x="10" y="74">└─┬ ember-cli-sass@6.1.2 </tspan>
<tspan x="10" y="90">  ├─┬ broccoli-funnel@1.2.0 </tspan>
<tspan x="10" y="106">  │ ├── array-equal@1.0.0 </tspan>
<tspan x="10" y="122">  │ ├── blank-object@1.0.2 </tspan>
<tspan x="10" y="138">  │ ├─┬ broccoli-plugin@1.3.0 </tspan>
<tspan x="10" y="154">  │ │ ├── promise-map-series@0.2.3 </tspan>
<tspan x="10" y="170">  │ │ └─┬ quick-temp@0.1.8 </tspan>
<tspan x="10" y="186">  │ │   ├── mktemp@0.4.0 </tspan>
<tspan x="10" y="202">  │ │   └─┬ underscore.string@3.3.4 </tspan>
<tspan x="10" y="218">  │ │     ├── sprintf-js@1.0.3 </tspan>
<tspan x="10" y="234">  │ │     └── util-deprecate@1.0.2 </tspan>
<tspan x="10" y="250">  │ ├─┬ debug@2.6.3 </tspan>
<tspan x="10" y="266">  │ │ └── ms@0.7.2 </tspan>
<tspan x="10" y="282">  │ ├── exists-sync@0.0.4 </tspan>
<tspan x="10" y="298">  │ ├── fast-ordered-set@1.0.3 </tspan>
<tspan x="10" y="314">  │ ├─┬ fs-tree-diff@0.5.6 </tspan>
<tspan x="10" y="330">  │ │ └── object-assign@4.1.1 </tspan>
<tspan x="10" y="346">  │ ├─┬ heimdalljs@0.2.4 </tspan>
<tspan x="10" y="362">  │ │ └── rsvp@3.2.1 </tspan>
<tspan x="10" y="378">  │ ├─┬ minimatch@3.0.3 </tspan>
<tspan x="10" y="394">  │ │ └─┬ brace-expansion@1.1.7 </tspan>
<tspan x="10" y="410">  │ │   ├── balanced-match@0.4.2 </tspan>
<tspan x="10" y="426">  │ │   └── concat-map@0.0.1 </tspan>
<tspan x="10" y="442">  │ ├─┬ mkdirp@0.5.1 </tspan>
<tspan x="10" y="458">  │ │ └── minimist@0.0.8 </tspan>
<tspan x="10" y="474">  │ ├── path-posix@1.0.0 </tspan>
<tspan x="10" y="490">  │ ├─┬ rimraf@2.6.1 </tspan>
<tspan x="10" y="506">  │ │ └─┬ glob@7.1.1 </tspan>
<tspan x="10" y="522">  │ │   ├── fs.realpath@1.0.0 </tspan>
<tspan x="10" y="538">  │ │   ├─┬ inflight@1.0.6 </tspan>
<tspan x="10" y="554">  │ │   │ └── wrappy@1.0.2 </tspan>
<tspan x="10" y="570">  │ │   ├── inherits@2.0.3 </tspan>
<tspan x="10" y="586">  │ │   ├── once@1.4.0 </tspan>
<tspan x="10" y="602">  │ │   └── path-is-absolute@1.0.1 </tspan>
<tspan x="10" y="618">  │ ├── symlink-or-copy@1.1.8 </tspan>
<tspan x="10" y="634">  │ └─┬ walk-sync@0.3.1 </tspan>
<tspan x="10" y="650">  │   ├── ensure-posix-path@1.0.2 </tspan>
<tspan x="10" y="666">  │   └── matcher-collection@1.0.4 </tspan>
<tspan x="10" y="682">  ├─┬ broccoli-merge-trees@1.2.4 </tspan>
<tspan x="10" y="698">  │ ├─┬ can-symlink@1.0.0 </tspan>
<tspan x="10" y="714">  │ │ └─┬ tmp@0.0.28 </tspan>
<tspan x="10" y="730">  │ │   └── os-tmpdir@1.0.2 </tspan>
<tspan x="10" y="746">  │ └── heimdalljs-logger@0.1.9 </tspan>
<tspan x="10" y="762">  ├─┬ broccoli-sass-source-maps@2.0.0 </tspan>
<tspan x="10" y="778">  │ ├─┬ broccoli-caching-writer@3.0.3 </tspan>
<tspan x="10" y="794">  │ │ └─┬ broccoli-kitchen-sink-helpers@0.3.1 </tspan>
<tspan x="10" y="810">  │ │   └── glob@5.0.15 </tspan>
<tspan x="10" y="826">  │ ├── include-path-searcher@0.1.0 </tspan>
<tspan x="10" y="842">  │ ├── mkdirp@0.3.5 </tspan>
<tspan x="10" y="858">  │ ├─┬ node-sass@4.5.2 </tspan>
<tspan x="10" y="874">  │ │ ├── async-foreach@0.1.3 </tspan>
<tspan x="10" y="890">  │ │ ├─┬ chalk@1.1.3 </tspan>
<tspan x="10" y="906">  │ │ │ ├── ansi-styles@2.2.1 </tspan>
<tspan x="10" y="922">  │ │ │ ├── escape-string-regexp@1.0.5 </tspan>
<tspan x="10" y="938">  │ │ │ ├─┬ has-ansi@2.0.0 </tspan>
<tspan x="10" y="954">  │ │ │ │ └── ansi-regex@2.1.1 </tspan>
<tspan x="10" y="970">  │ │ │ ├── strip-ansi@3.0.1 </tspan>
<tspan x="10" y="986">  │ │ │ └── supports-color@2.0.0 </tspan>
<tspan x="10" y="1002">  │ │ ├─┬ cross-spawn@3.0.1 </tspan>
<tspan x="10" y="1018">  │ │ │ ├─┬ lru-cache@4.0.2 </tspan>
<tspan x="10" y="1034">  │ │ │ │ ├── pseudomap@1.0.2 </tspan>
<tspan x="10" y="1050">  │ │ │ │ └── yallist@2.1.2 </tspan>
<tspan x="10" y="1066">  │ │ │ └─┬ which@1.2.14 </tspan>
<tspan x="10" y="1082">  │ │ │   └── isexe@2.0.0 </tspan>
<tspan x="10" y="1098">  │ │ ├─┬ gaze@1.1.2 </tspan>
<tspan x="10" y="1114">  │ │ │ └── globule@1.1.0 </tspan>
<tspan x="10" y="1130">  │ │ ├── get-stdin@4.0.1 </tspan>
<tspan x="10" y="1146">  │ │ ├── in-publish@2.0.0 </tspan>
<tspan x="10" y="1162">  │ │ ├── lodash.assign@4.2.0 </tspan>
<tspan x="10" y="1178">  │ │ ├── lodash.clonedeep@4.5.0 </tspan>
<tspan x="10" y="1194">  │ │ ├── lodash.mergewith@4.6.0 </tspan>
<tspan x="10" y="1210">  │ │ ├─┬ meow@3.7.0 </tspan>
<tspan x="10" y="1226">  │ │ │ ├─┬ camelcase-keys@2.1.0 </tspan>
<tspan x="10" y="1242">  │ │ │ │ └── camelcase@2.1.1 </tspan>
<tspan x="10" y="1258">  │ │ │ ├── decamelize@1.2.0 </tspan>
<tspan x="10" y="1274">  │ │ │ ├─┬ loud-rejection@1.6.0 </tspan>
<tspan x="10" y="1290">  │ │ │ │ ├─┬ currently-unhandled@0.4.1 </tspan>
<tspan x="10" y="1306">  │ │ │ │ │ └── array-find-index@1.0.2 </tspan>
<tspan x="10" y="1322">  │ │ │ │ └── signal-exit@3.0.2 </tspan>
<tspan x="10" y="1338">  │ │ │ ├── map-obj@1.0.1 </tspan>
<tspan x="10" y="1354">  │ │ │ ├── minimist@1.2.0 </tspan>
<tspan x="10" y="1370">  │ │ │ ├─┬ normalize-package-data@2.3.6 </tspan>
<tspan x="10" y="1386">  │ │ │ │ ├── hosted-git-info@2.4.2 </tspan>
<tspan x="10" y="1402">  │ │ │ │ ├─┬ is-builtin-module@1.0.0 </tspan>
<tspan x="10" y="1418">  │ │ │ │ │ └── builtin-modules@1.1.1 </tspan>
<tspan x="10" y="1434">  │ │ │ │ └─┬ validate-npm-package-license@3.0.1 </tspan>
<tspan x="10" y="1450">  │ │ │ │   ├─┬ spdx-correct@1.0.2 </tspan>
<tspan x="10" y="1466">  │ │ │ │   │ └── spdx-license-ids@1.2.2 </tspan>
<tspan x="10" y="1482">  │ │ │ │   └── spdx-expression-parse@1.0.4 </tspan>
<tspan x="10" y="1498">  │ │ │ ├─┬ read-pkg-up@1.0.1 </tspan>
<tspan x="10" y="1514">  │ │ │ │ ├─┬ find-up@1.1.2 </tspan>
<tspan x="10" y="1530">  │ │ │ │ │ ├── path-exists@2.1.0 </tspan>
<tspan x="10" y="1546">  │ │ │ │ │ └─┬ pinkie-promise@2.0.1 </tspan>
<tspan x="10" y="1562">  │ │ │ │ │   └── pinkie@2.0.4 </tspan>
<tspan x="10" y="1578">  │ │ │ │ └─┬ read-pkg@1.1.0 </tspan>
<tspan x="10" y="1594">  │ │ │ │   ├─┬ load-json-file@1.1.0 </tspan>
<tspan x="10" y="1610">  │ │ │ │   │ ├─┬ parse-json@2.2.0 </tspan>
<tspan x="10" y="1626">  │ │ │ │   │ │ └─┬ error-ex@1.3.1 </tspan>
<tspan x="10" y="1642">  │ │ │ │   │ │   └── is-arrayish@0.2.1 </tspan>
<tspan x="10" y="1658">  │ │ │ │   │ ├── pify@2.3.0 </tspan>
<tspan x="10" y="1674">  │ │ │ │   │ └─┬ strip-bom@2.0.0 </tspan>
<tspan x="10" y="1690">  │ │ │ │   │   └── is-utf8@0.2.1 </tspan>
<tspan x="10" y="1706">  │ │ │ │   └── path-type@1.1.0 </tspan>
<tspan x="10" y="1722">  │ │ │ ├─┬ redent@1.0.0 </tspan>
<tspan x="10" y="1738">  │ │ │ │ ├─┬ indent-string@2.1.0 </tspan>
<tspan x="10" y="1754">  │ │ │ │ │ └── repeating@2.0.1 </tspan>
<tspan x="10" y="1770">  │ │ │ │ └── strip-indent@1.0.1 </tspan>
<tspan x="10" y="1786">  │ │ │ └── trim-newlines@1.0.0 </tspan>
<tspan x="10" y="1802">  │ │ ├── nan@2.6.2 </tspan>
<tspan x="10" y="1818">  │ │ ├─┬ node-gyp@3.6.0 </tspan>
<tspan x="10" y="1834">  │ │ │ ├── fstream@1.0.11 </tspan>
<tspan x="10" y="1850">  │ │ │ ├── graceful-fs@4.1.11 </tspan>
<tspan x="10" y="1866">  │ │ │ ├─┬ nopt@3.0.6 </tspan>
<tspan x="10" y="1882">  │ │ │ │ └── abbrev@1.1.0 </tspan>
<tspan x="10" y="1898">  │ │ │ ├─┬ osenv@0.1.4 </tspan>
<tspan x="10" y="1914">  │ │ │ │ └── os-homedir@1.0.2 </tspan>
<tspan x="10" y="1930">  │ │ │ └─┬ tar@2.2.1 </tspan>
<tspan x="10" y="1946">  │ │ │   └── block-stream@0.0.9 </tspan>
<tspan x="10" y="1962">  │ │ ├─┬ npmlog@4.0.2 </tspan>
<tspan x="10" y="1978">  │ │ │ ├─┬ are-we-there-yet@1.1.2 </tspan>
<tspan x="10" y="1994">  │ │ │ │ └── delegates@1.0.0 </tspan>
<tspan x="10" y="2010">  │ │ │ ├── console-control-strings@1.1.0 </tspan>
<tspan x="10" y="2026">  │ │ │ ├─┬ gauge@2.7.3 </tspan>
<tspan x="10" y="2042">  │ │ │ │ ├── aproba@1.1.1 </tspan>
<tspan x="10" y="2058">  │ │ │ │ ├── has-unicode@2.0.1 </tspan>
<tspan x="10" y="2074">  │ │ │ │ ├─┬ string-width@1.0.2 </tspan>
<tspan x="10" y="2090">  │ │ │ │ │ ├── code-point-at@1.1.0 </tspan>
<tspan x="10" y="2106">  │ │ │ │ │ └── is-fullwidth-code-point@1.0.0 </tspan>
<tspan x="10" y="2122">  │ │ │ │ └── wide-align@1.1.0 </tspan>
<tspan x="10" y="2138">  │ │ │ └── set-blocking@2.0.0 </tspan>
<tspan x="10" y="2154">  │ │ ├─┬ request@2.81.0 </tspan>
<tspan x="10" y="2170">  │ │ │ ├── aws-sign2@0.6.0 </tspan>
<tspan x="10" y="2186">  │ │ │ ├── aws4@1.6.0 </tspan>
<tspan x="10" y="2202">  │ │ │ ├── caseless@0.12.0 </tspan>
<tspan x="10" y="2218">  │ │ │ ├─┬ combined-stream@1.0.5 </tspan>
<tspan x="10" y="2234">  │ │ │ │ └── delayed-stream@1.0.0 </tspan>
<tspan x="10" y="2250">  │ │ │ ├── extend@3.0.0 </tspan>
<tspan x="10" y="2266">  │ │ │ ├── forever-agent@0.6.1 </tspan>
<tspan x="10" y="2282">  │ │ │ ├─┬ form-data@2.1.4 </tspan>
<tspan x="10" y="2298">  │ │ │ │ └── asynckit@0.4.0 </tspan>
<tspan x="10" y="2314">  │ │ │ ├─┬ har-validator@4.2.1 </tspan>
<tspan x="10" y="2330">  │ │ │ │ ├─┬ ajv@4.11.7 </tspan>
<tspan x="10" y="2346">  │ │ │ │ │ └── co@4.6.0 </tspan>
<tspan x="10" y="2362">  │ │ │ │ └── har-schema@1.0.5 </tspan>
<tspan x="10" y="2378">  │ │ │ ├─┬ hawk@3.1.3 </tspan>
<tspan x="10" y="2394">  │ │ │ │ ├── boom@2.10.1 </tspan>
<tspan x="10" y="2410">  │ │ │ │ ├── cryptiles@2.0.5 </tspan>
<tspan x="10" y="2426">  │ │ │ │ ├── hoek@2.16.3 </tspan>
<tspan x="10" y="2442">  │ │ │ │ └── sntp@1.0.9 </tspan>
<tspan x="10" y="2458">  │ │ │ ├─┬ http-signature@1.1.1 </tspan>
<tspan x="10" y="2474">  │ │ │ │ ├── assert-plus@0.2.0 </tspan>
<tspan x="10" y="2490">  │ │ │ │ ├─┬ jsprim@1.4.0 </tspan>
<tspan x="10" y="2506">  │ │ │ │ │ ├── assert-plus@1.0.0 </tspan>
<tspan x="10" y="2522">  │ │ │ │ │ ├── extsprintf@1.0.2 </tspan>
<tspan x="10" y="2538">  │ │ │ │ │ ├── json-schema@0.2.3 </tspan>
<tspan x="10" y="2554">  │ │ │ │ │ └── verror@1.3.6 </tspan>
<tspan x="10" y="2570">  │ │ │ │ └─┬ sshpk@1.13.0 </tspan>
<tspan x="10" y="2586">  │ │ │ │   ├── asn1@0.2.3 </tspan>
<tspan x="10" y="2602">  │ │ │ │   ├── assert-plus@1.0.0 </tspan>
<tspan x="10" y="2618">  │ │ │ │   ├── bcrypt-pbkdf@1.0.1 </tspan>
<tspan x="10" y="2634">  │ │ │ │   ├─┬ dashdash@1.14.1 </tspan>
<tspan x="10" y="2650">  │ │ │ │   │ └── assert-plus@1.0.0 </tspan>
<tspan x="10" y="2666">  │ │ │ │   ├── ecc-jsbn@0.1.1 </tspan>
<tspan x="10" y="2682">  │ │ │ │   ├─┬ getpass@0.1.6 </tspan>
<tspan x="10" y="2698">  │ │ │ │   │ └── assert-plus@1.0.0 </tspan>
<tspan x="10" y="2714">  │ │ │ │   ├── jodid25519@1.0.2 </tspan>
<tspan x="10" y="2730">  │ │ │ │   ├── jsbn@0.1.1 </tspan>
<tspan x="10" y="2746">  │ │ │ │   └── tweetnacl@0.14.5 </tspan>
<tspan x="10" y="2762">  │ │ │ ├── is-typedarray@1.0.0 </tspan>
<tspan x="10" y="2778">  │ │ │ ├── isstream@0.1.2 </tspan>
<tspan x="10" y="2794">  │ │ │ ├── json-stringify-safe@5.0.1 </tspan>
<tspan x="10" y="2810">  │ │ │ ├─┬ mime-types@2.1.15 </tspan>
<tspan x="10" y="2826">  │ │ │ │ └── mime-db@1.27.0 </tspan>
<tspan x="10" y="2842">  │ │ │ ├── oauth-sign@0.8.2 </tspan>
<tspan x="10" y="2858">  │ │ │ ├── performance-now@0.2.0 </tspan>
<tspan x="10" y="2874">  │ │ │ ├── qs@6.4.0 </tspan>
<tspan x="10" y="2890">  │ │ │ ├── safe-buffer@5.0.1 </tspan>
<tspan x="10" y="2906">  │ │ │ ├── stringstream@0.0.5 </tspan>
<tspan x="10" y="2922">  │ │ │ ├─┬ tough-cookie@2.3.2 </tspan>
<tspan x="10" y="2938">  │ │ │ │ └── punycode@1.4.1 </tspan>
<tspan x="10" y="2954">  │ │ │ ├── tunnel-agent@0.6.0 </tspan>
<tspan x="10" y="2970">  │ │ │ └── uuid@3.0.1 </tspan>
<tspan x="10" y="2986">  │ │ ├─┬ sass-graph@2.1.2 </tspan>
<tspan x="10" y="3002">  │ │ │ ├── lodash@4.16.6 </tspan>
<tspan x="10" y="3018">  │ │ │ └─┬ yargs@4.8.1 </tspan>
<tspan x="10" y="3034">  │ │ │   ├─┬ cliui@3.2.0 </tspan>
<tspan x="10" y="3050">  │ │ │   │ └── wrap-ansi@2.1.0 </tspan>
<tspan x="10" y="3066">  │ │ │   ├── get-caller-file@1.0.2 </tspan>
<tspan x="10" y="3082">  │ │ │   ├─┬ os-locale@1.4.0 </tspan>
<tspan x="10" y="3098">  │ │ │   │ └─┬ lcid@1.0.0 </tspan>
<tspan x="10" y="3114">  │ │ │   │   └── invert-kv@1.0.0 </tspan>
<tspan x="10" y="3130">  │ │ │   ├── require-directory@2.1.1 </tspan>
<tspan x="10" y="3146">  │ │ │   ├── require-main-filename@1.0.1 </tspan>
<tspan x="10" y="3162">  │ │ │   ├── which-module@1.0.0 </tspan>
<tspan x="10" y="3178">  │ │ │   ├── window-size@0.2.0 </tspan>
<tspan x="10" y="3194">  │ │ │   ├── y18n@3.2.1 </tspan>
<tspan x="10" y="3210">  │ │ │   └─┬ yargs-parser@2.4.1 </tspan>
<tspan x="10" y="3226">  │ │ │     └── camelcase@3.0.0 </tspan>
<tspan x="10" y="3242">  │ │ └─┬ stdout-stream@1.4.0 </tspan>
<tspan x="10" y="3258">  │ │   └─┬ readable-stream@2.2.9 </tspan>
<tspan x="10" y="3274">  │ │     ├── buffer-shims@1.0.0 </tspan>
<tspan x="10" y="3290">  │ │     ├── core-util-is@1.0.2 </tspan>
<tspan x="10" y="3306">  │ │     ├── isarray@1.0.0 </tspan>
<tspan x="10" y="3322">  │ │     ├── process-nextick-args@1.0.7 </tspan>
<tspan x="10" y="3338">  │ │     └── string_decoder@1.0.0 </tspan>
<tspan x="10" y="3354">  │ ├── object-assign@2.1.1 </tspan>
<tspan x="10" y="3370">  │ └── rsvp@3.5.0 </tspan>
<tspan x="10" y="3386">  ├─┬ ember-cli-babel@5.2.4 </tspan>
<tspan x="10" y="3402">  │ ├─┬ broccoli-babel-transpiler@5.6.2 </tspan>
<tspan x="10" y="3418">  │ │ ├─┬ babel-core@5.8.38 </tspan>
<tspan x="10" y="3434">  │ │ │ ├── babel-plugin-constant-folding@1.0.1 </tspan>
<tspan x="10" y="3450">  │ │ │ ├── babel-plugin-dead-code-elimination@1.0.2 </tspan>
<tspan x="10" y="3466">  │ │ │ ├── babel-plugin-eval@1.0.1 </tspan>
<tspan x="10" y="3482">  │ │ │ ├── babel-plugin-inline-environment-variables@1.0.1 </tspan>
<tspan x="10" y="3498">  │ │ │ ├── babel-plugin-jscript@1.0.4 </tspan>
<tspan x="10" y="3514">  │ │ │ ├── babel-plugin-member-expression-literals@1.0.1 </tspan>
<tspan x="10" y="3530">  │ │ │ ├── babel-plugin-property-literals@1.0.1 </tspan>
<tspan x="10" y="3546">  │ │ │ ├─┬ babel-plugin-proto-to-assign@1.0.4 </tspan>
<tspan x="10" y="3562">  │ │ │ │ └── lodash@3.10.1 </tspan>
<tspan x="10" y="3578">  │ │ │ ├── babel-plugin-react-constant-elements@1.0.3 </tspan>
<tspan x="10" y="3594">  │ │ │ ├── babel-plugin-react-display-name@1.0.3 </tspan>
<tspan x="10" y="3610">  │ │ │ ├── babel-plugin-remove-console@1.0.1 </tspan>
<tspan x="10" y="3626">  │ │ │ ├── babel-plugin-remove-debugger@1.0.1 </tspan>
<tspan x="10" y="3642">  │ │ │ ├── babel-plugin-runtime@1.0.7 </tspan>
<tspan x="10" y="3658">  │ │ │ ├─┬ babel-plugin-undeclared-variables-check@1.0.2 </tspan>
<tspan x="10" y="3674">  │ │ │ │ └── leven@1.0.2 </tspan>
<tspan x="10" y="3690">  │ │ │ ├── babel-plugin-undefined-to-void@1.1.6 </tspan>
<tspan x="10" y="3706">  │ │ │ ├── babylon@5.8.38 </tspan>
<tspan x="10" y="3722">  │ │ │ ├── bluebird@2.11.0 </tspan>
<tspan x="10" y="3738">  │ │ │ ├── convert-source-map@1.5.0 </tspan>
<tspan x="10" y="3754">  │ │ │ ├── core-js@1.2.7 </tspan>
<tspan x="10" y="3770">  │ │ │ ├─┬ detect-indent@3.0.1 </tspan>
<tspan x="10" y="3786">  │ │ │ │ ├── minimist@1.2.0 </tspan>
<tspan x="10" y="3802">  │ │ │ │ └── repeating@1.1.3 </tspan>
<tspan x="10" y="3818">  │ │ │ ├── esutils@2.0.2 </tspan>
<tspan x="10" y="3834">  │ │ │ ├── fs-readdir-recursive@0.1.2 </tspan>
<tspan x="10" y="3850">  │ │ │ ├── globals@6.4.1 </tspan>
<tspan x="10" y="3866">  │ │ │ ├─┬ home-or-tmp@1.0.0 </tspan>
<tspan x="10" y="3882">  │ │ │ │ └── user-home@1.1.1 </tspan>
<tspan x="10" y="3898">  │ │ │ ├── is-integer@1.0.6 </tspan>
<tspan x="10" y="3914">  │ │ │ ├── js-tokens@1.0.1 </tspan>
<tspan x="10" y="3930">  │ │ │ ├── json5@0.4.0 </tspan>
<tspan x="10" y="3946">  │ │ │ ├── lodash@3.10.1 </tspan>
<tspan x="10" y="3962">  │ │ │ ├── minimatch@2.0.10 </tspan>
<tspan x="10" y="3978">  │ │ │ ├── output-file-sync@1.1.2 </tspan>
<tspan x="10" y="3994">  │ │ │ ├── path-exists@1.0.0 </tspan>
<tspan x="10" y="4010">  │ │ │ ├── private@0.1.7 </tspan>
<tspan x="10" y="4026">  │ │ │ ├─┬ regenerator@0.8.40 </tspan>
<tspan x="10" y="4042">  │ │ │ │ ├─┬ commoner@0.10.8 </tspan>
<tspan x="10" y="4058">  │ │ │ │ │ ├─┬ commander@2.9.0 </tspan>
<tspan x="10" y="4074">  │ │ │ │ │ │ └── graceful-readlink@1.0.1 </tspan>
<tspan x="10" y="4090">  │ │ │ │ │ ├─┬ detective@4.5.0 </tspan>
<tspan x="10" y="4106">  │ │ │ │ │ │ ├── acorn@4.0.11 </tspan>
<tspan x="10" y="4122">  │ │ │ │ │ │ └── defined@1.0.0 </tspan>
<tspan x="10" y="4138">  │ │ │ │ │ ├── glob@5.0.15 </tspan>
<tspan x="10" y="4154">  │ │ │ │ │ ├── iconv-lite@0.4.15 </tspan>
<tspan x="10" y="4170">  │ │ │ │ │ ├── q@1.5.0 </tspan>
<tspan x="10" y="4186">  │ │ │ │ │ └─┬ recast@0.11.23 </tspan>
<tspan x="10" y="4202">  │ │ │ │ │   ├── ast-types@0.9.6 </tspan>
<tspan x="10" y="4218">  │ │ │ │ │   └── esprima@3.1.3 </tspan>
<tspan x="10" y="4234">  │ │ │ │ ├─┬ defs@1.1.1 </tspan>
<tspan x="10" y="4250">  │ │ │ │ │ ├─┬ alter@0.2.0 </tspan>
<tspan x="10" y="4266">  │ │ │ │ │ │ └── stable@0.1.6 </tspan>
<tspan x="10" y="4282">  │ │ │ │ │ ├── ast-traverse@0.1.1 </tspan>
<tspan x="10" y="4298">  │ │ │ │ │ ├── breakable@1.0.0 </tspan>
<tspan x="10" y="4314">  │ │ │ │ │ ├── simple-fmt@0.1.0 </tspan>
<tspan x="10" y="4330">  │ │ │ │ │ ├── simple-is@0.2.0 </tspan>
<tspan x="10" y="4346">  │ │ │ │ │ ├── stringmap@0.2.2 </tspan>
<tspan x="10" y="4362">  │ │ │ │ │ ├── stringset@0.2.1 </tspan>
<tspan x="10" y="4378">  │ │ │ │ │ ├── tryor@0.1.2 </tspan>
<tspan x="10" y="4394">  │ │ │ │ │ └─┬ yargs@3.27.0 </tspan>
<tspan x="10" y="4410">  │ │ │ │ │   ├── camelcase@1.2.1 </tspan>
<tspan x="10" y="4426">  │ │ │ │ │   ├─┬ cliui@2.1.0 </tspan>
<tspan x="10" y="4442">  │ │ │ │ │   │ ├─┬ center-align@0.1.3 </tspan>
<tspan x="10" y="4458">  │ │ │ │ │   │ │ ├─┬ align-text@0.1.4 </tspan>
<tspan x="10" y="4474">  │ │ │ │ │   │ │ │ ├─┬ kind-of@3.1.0 </tspan>
<tspan x="10" y="4490">  │ │ │ │ │   │ │ │ │ └── is-buffer@1.1.5 </tspan>
<tspan x="10" y="4506">  │ │ │ │ │   │ │ │ ├── longest@1.0.1 </tspan>
<tspan x="10" y="4522">  │ │ │ │ │   │ │ │ └── repeat-string@1.6.1 </tspan>
<tspan x="10" y="4538">  │ │ │ │ │   │ │ └── lazy-cache@1.0.4 </tspan>
<tspan x="10" y="4554">  │ │ │ │ │   │ ├── right-align@0.1.3 </tspan>
<tspan x="10" y="4570">  │ │ │ │ │   │ └── wordwrap@0.0.2 </tspan>
<tspan x="10" y="4586">  │ │ │ │ │   └── window-size@0.1.4 </tspan>
<tspan x="10" y="4602">  │ │ │ │ ├── esprima-fb@15001.1001.0-dev-harmony-fb </tspan>
<tspan x="10" y="4618">  │ │ │ │ ├─┬ recast@0.10.33 </tspan>
<tspan x="10" y="4634">  │ │ │ │ │ └── ast-types@0.8.12 </tspan>
<tspan x="10" y="4650">  │ │ │ │ └── through@2.3.8 </tspan>
<tspan x="10" y="4666">  │ │ │ ├─┬ regexpu@1.3.0 </tspan>
<tspan x="10" y="4682">  │ │ │ │ ├── esprima@2.7.3 </tspan>
<tspan x="10" y="4698">  │ │ │ │ ├── regenerate@1.3.2 </tspan>
<tspan x="10" y="4714">  │ │ │ │ ├── regjsgen@0.2.0 </tspan>
<tspan x="10" y="4730">  │ │ │ │ └─┬ regjsparser@0.1.5 </tspan>
<tspan x="10" y="4746">  │ │ │ │   └── jsesc@0.5.0 </tspan>
<tspan x="10" y="4762">  │ │ │ ├─┬ repeating@1.1.3 </tspan>
<tspan x="10" y="4778">  │ │ │ │ └─┬ is-finite@1.0.2 </tspan>
<tspan x="10" y="4794">  │ │ │ │   └── number-is-nan@1.0.1 </tspan>
<tspan x="10" y="4810">  │ │ │ ├── shebang-regex@1.0.0 </tspan>
<tspan x="10" y="4826">  │ │ │ ├── slash@1.0.0 </tspan>
<tspan x="10" y="4842">  │ │ │ ├── source-map@0.5.6 </tspan>
<tspan x="10" y="4858">  │ │ │ ├─┬ source-map-support@0.2.10 </tspan>
<tspan x="10" y="4874">  │ │ │ │ └─┬ source-map@0.1.32 </tspan>
<tspan x="10" y="4890">  │ │ │ │   └── amdefine@1.0.1 </tspan>
<tspan x="10" y="4906">  │ │ │ ├── to-fast-properties@1.0.2 </tspan>
<tspan x="10" y="4922">  │ │ │ ├── trim-right@1.0.1 </tspan>
<tspan x="10" y="4938">  │ │ │ └── try-resolve@1.0.1 </tspan>
<tspan x="10" y="4954">  │ │ ├─┬ broccoli-persistent-filter@1.2.13 </tspan>
<tspan x="10" y="4970">  │ │ │ ├─┬ async-disk-cache@1.3.1 </tspan>
<tspan x="10" y="4986">  │ │ │ │ └─┬ istextorbinary@2.1.0 </tspan>
<tspan x="10" y="5002">  │ │ │ │   ├── binaryextensions@2.0.0 </tspan>
<tspan x="10" y="5018">  │ │ │ │   ├── editions@1.3.3 </tspan>
<tspan x="10" y="5034">  │ │ │ │   └── textextensions@2.0.1 </tspan>
<tspan x="10" y="5050">  │ │ │ └─┬ md5-hex@1.3.0 </tspan>
<tspan x="10" y="5066">  │ │ │   └── md5-o-matic@0.1.1 </tspan>
<tspan x="10" y="5082">  │ │ ├── clone@0.2.0 </tspan>
<tspan x="10" y="5098">  │ │ ├── hash-for-dep@1.1.2 </tspan>
<tspan x="10" y="5114">  │ │ └─┬ json-stable-stringify@1.0.1 </tspan>
<tspan x="10" y="5130">  │ │   └── jsonify@0.0.0 </tspan>
<tspan x="10" y="5146">  │ ├── clone@2.1.1 </tspan>
<tspan x="10" y="5162">  │ └─┬ resolve@1.3.2 </tspan>
<tspan x="10" y="5178">  │   └── path-parse@1.0.5 </tspan>
<tspan x="10" y="5194">  ├─┬ ember-cli-version-checker@1.2.0 </tspan>
<tspan x="10" y="5210">  │ └── semver@5.3.0 </tspan>
<tspan x="10" y="5226">  └── merge@1.2.0</tspan>
</text>
</svg>
